<svg width="195" height="208" viewBox="0 0 195 208" fill="none" xmlns="http://www.w3.org/2000/svg">
<ellipse cx="95.0001" cy="94.6368" rx="67.3913" ry="67.2101" fill="#282828"/>
<path d="M20 192V173.12H20.96V192H20ZM21.92 192V173.12H22.88V192H21.92ZM23.84 192V173.12H26.72V192H23.84ZM27.68 192V173.12H30.56V192H27.68ZM33.44 192V173.12H34.4V192H33.44ZM27.168 195.52H25.088V194.784H30.208V195.52H28.032V202.208H27.168V195.52ZM35.375 192V173.12H38.255V192H35.375ZM39.215 192V173.12H40.175V192H39.215ZM41.135 192V173.12H44.015V192H41.135ZM46.895 192V173.12H47.855V192H46.895ZM48.815 192V173.12H49.775V192H48.815ZM40.783 194.784H45.327V195.52H41.551V197.952H44.687V198.72H41.551V201.472H45.295V202.208H40.783V194.784ZM50.75 192V173.12H53.63V192H50.75ZM54.59 192V173.12H55.55V192H54.59ZM56.51 192V173.12H57.47V192H56.51ZM60.35 192V173.12H61.31V192H60.35ZM62.27 192V173.12H65.15V192H62.27ZM59.614 200.032H57.214L56.478 202.208H55.646L58.366 194.656H58.462L61.214 202.208H60.35L59.614 200.032ZM59.39 199.392L58.43 196.576L57.438 199.392H59.39ZM66.125 192V173.12H69.005V192H66.125ZM69.965 192V173.12H72.845V192H69.965ZM73.805 192V173.12H74.765V192H73.805ZM75.725 192V173.12H76.685V192H75.725ZM79.565 192V173.12H80.525V192H79.565ZM71.309 194.784H71.981L73.805 198.432L75.661 194.784H76.301V202.208H75.501V196.608L73.901 199.616H73.581L72.077 196.64V202.208H71.309V194.784ZM81.5 192V173.12H82.46V192H81.5ZM85.34 192V173.12H88.22V192H85.34ZM89.18 192V173.12H90.14V192H89.18ZM91.1 192V173.12H93.98V192H91.1ZM94.94 192V173.12H95.9V192H94.94ZM96.875 192V173.12H97.835V192H96.875ZM98.795 192V173.12H99.755V192H98.795ZM100.715 192V173.12H101.675V192H100.715ZM104.555 192V173.12H107.435V192H104.555ZM108.395 192V173.12H111.275V192H108.395ZM104.875 202.336C104.278 202.336 103.766 202.176 103.339 201.856C102.912 201.557 102.582 201.12 102.347 200.544C102.112 199.989 101.995 199.339 101.995 198.592C101.995 197.611 102.144 196.832 102.443 196.256C102.742 195.68 103.104 195.275 103.531 195.04C103.958 194.827 104.384 194.72 104.811 194.72C105.259 194.72 105.686 194.837 106.091 195.072C106.518 195.285 106.827 195.584 107.019 195.968L106.443 196.416L106.347 196.512L106.315 196.448C106.315 196.384 106.304 196.32 106.283 196.256C106.24 196.213 106.176 196.139 106.091 196.032C105.899 195.819 105.707 195.669 105.515 195.584C105.323 195.499 105.088 195.456 104.811 195.456C104.235 195.456 103.755 195.68 103.371 196.128C103.008 196.597 102.827 197.355 102.827 198.4C102.827 199.424 103.008 200.213 103.371 200.768C103.734 201.323 104.235 201.6 104.875 201.6C105.11 201.6 105.355 201.557 105.611 201.472C105.888 201.408 106.112 201.301 106.283 201.152V199.392H104.939V198.656H107.051V201.568C106.347 202.08 105.622 202.336 104.875 202.336ZM112.25 192V173.12H115.13V192H112.25ZM116.09 192V173.12H117.05V192H116.09ZM118.01 192V173.12H118.97V192H118.01ZM121.85 192V173.12H122.81V192H121.85ZM123.77 192V173.12H126.65V192H123.77ZM121.114 200.032H118.714L117.978 202.208H117.146L119.866 194.656H119.962L122.714 202.208H121.85L121.114 200.032ZM120.89 199.392L119.93 196.576L118.938 199.392H120.89ZM127.625 192V173.12H128.585V192H127.625ZM129.545 192V173.12H132.425V192H129.545ZM133.385 192V173.12H134.345V192H133.385ZM135.305 192V173.12H136.265V192H135.305ZM139.145 192V173.12H142.025V192H139.145ZM133.129 194.784H134.089V194.88C134.046 194.923 134.014 194.976 133.993 195.04C133.993 195.083 133.993 195.179 133.993 195.328V201.504H137.545V202.208H133.129V194.784ZM143 192V173.12H145.88V192H143ZM146.84 192V173.12H147.8V192H146.84ZM148.76 192V173.12H149.72V192H148.76ZM152.6 192V173.12H153.56V192H152.6ZM154.52 192V173.12H157.4V192H154.52ZM151.864 200.032H149.464L148.728 202.208H147.896L150.616 194.656H150.712L153.464 202.208H152.6L151.864 200.032ZM151.64 199.392L150.68 196.576L149.688 199.392H151.64ZM158.375 192V173.12H159.335V192H158.375ZM162.215 192V173.12H163.175V192H162.215ZM164.135 192V173.12H167.015V192H164.135ZM167.975 192V173.12H168.935V192H167.975ZM169.895 192V173.12H172.775V192H169.895ZM165.575 198.432L163.591 194.784H164.487L166.055 197.6L167.591 194.784H168.423L166.535 198.4L168.647 202.208H167.719L166.055 199.264L164.455 202.208H163.559L165.575 198.432ZM173.75 192V173.12H176.63V192H173.75ZM179.51 192V173.12H180.47V192H179.51ZM181.43 192V173.12H184.31V192H181.43ZM185.27 192V173.12H186.23V192H185.27ZM187.19 192V173.12H188.15V192H187.19ZM181.078 199.296L178.774 194.784H179.734L181.558 198.4L183.19 194.784H184.086L181.974 199.296V202.208H181.078V199.296Z" fill="black"/>
<mask id="mask0_156_30" style="mask-type:alpha" maskUnits="userSpaceOnUse" x="27" y="27" width="136" height="135">
<ellipse cx="95.0001" cy="94.6368" rx="67.3913" ry="67.2101" fill="black"/>
</mask>
<g mask="url(#mask0_156_30)">
<path d="M22.3021 49.7953C56.5111 78.9614 99.0545 66.2212 99.7839 64.9317C100.367 63.9001 103.989 62.4885 105.726 61.9116C80.3012 60.7452 35.9992 53.8595 62.1916 35.6475C88.3841 17.4355 46.5121 37.491 22.3021 49.7953Z" fill="#696969"/>
</g>
<mask id="mask1_156_30" style="mask-type:alpha" maskUnits="userSpaceOnUse" x="27" y="27" width="136" height="135">
<circle cx="94.8189" cy="94.384" r="67.2408" transform="rotate(-142 94.8189 94.384)" fill="black"/>
</mask>
<g mask="url(#mask1_156_30)">
<path d="M176.601 60.4099C132.415 68.6859 115.585 109.783 116.13 111.161C116.565 112.263 115.387 115.967 114.744 117.681C131.631 98.6389 164.831 68.5089 162.534 100.328C160.237 132.147 170.955 86.9738 176.601 60.4099Z" fill="#696969"/>
<path d="M111.361 182.558C115.08 137.758 79.906 110.646 78.4333 110.807C77.255 110.935 73.9953 108.818 72.5127 107.744C86.4039 129.071 106.667 169.064 76.5925 158.423C46.5176 147.783 87.2402 170.08 111.361 182.558Z" fill="#696969"/>
<circle cx="95.1812" cy="91.0136" r="19.3841" fill="white"/>
</g>
</svg>
