<svg width="141" height="138" viewBox="0 0 141 138" fill="none" xmlns="http://www.w3.org/2000/svg">
<line x1="120.5" y1="48.5" x2="137.5" y2="48.5" stroke="#69E83D" stroke-width="7" stroke-linecap="round"/>
<line x1="120.5" y1="88.5" x2="137.5" y2="88.5" stroke="#69E83D" stroke-width="7" stroke-linecap="round"/>
<line x1="120.5" y1="68.5" x2="137.5" y2="68.5" stroke="#69E83D" stroke-width="7" stroke-linecap="round"/>
<line x1="90.5" y1="117.5" x2="90.5" y2="134.5" stroke="#69E83D" stroke-width="7" stroke-linecap="round"/>
<line x1="50.5" y1="117.5" x2="50.5" y2="134.5" stroke="#69E83D" stroke-width="7" stroke-linecap="round"/>
<line x1="70.5" y1="117.5" x2="70.5" y2="134.5" stroke="#69E83D" stroke-width="7" stroke-linecap="round"/>
<line x1="20.5" y1="89.5" x2="3.5" y2="89.5" stroke="#69E83D" stroke-width="7" stroke-linecap="round"/>
<line x1="20.5" y1="49.5" x2="3.5" y2="49.5" stroke="#69E83D" stroke-width="7" stroke-linecap="round"/>
<line x1="20.5" y1="69.5" x2="3.5" y2="69.5" stroke="#69E83D" stroke-width="7" stroke-linecap="round"/>
<line x1="50.5" y1="20.5" x2="50.5" y2="3.5" stroke="#69E83D" stroke-width="7" stroke-linecap="round"/>
<line x1="90.5" y1="20.5" x2="90.5" y2="3.5" stroke="#69E83D" stroke-width="7" stroke-linecap="round"/>
<line x1="70.5" y1="20.5" x2="70.5" y2="3.5" stroke="#69E83D" stroke-width="7" stroke-linecap="round"/>
<rect x="21" y="20" width="100" height="100" rx="7" fill="url(#paint0_linear_156_28)"/>
<rect x="21" y="20" width="100" height="100" rx="7" stroke="black"/>
<defs>
<linearGradient id="paint0_linear_156_28" x1="121" y1="22.5" x2="25.5" y2="120" gradientUnits="userSpaceOnUse">
<stop stop-color="#5BE644"/>
<stop offset="1" stop-color="#20CC1D"/>
</linearGradient>
</defs>
</svg>
