<svg width="119" height="138" viewBox="0 0 119 138" fill="none" xmlns="http://www.w3.org/2000/svg">
<rect x="36.4181" y="71.5259" width="25" height="63" rx="12.5" transform="rotate(35.1713 36.4181 71.5259)" fill="#FFB800"/>
<rect x="50.73" y="0.870605" width="15" height="36" rx="7.5" transform="rotate(35.1713 50.73 0.870605)" fill="url(#paint0_linear_157_48)"/>
<rect x="64.6263" y="10.6631" width="15" height="36" rx="7.5" transform="rotate(35.1713 64.6263 10.6631)" fill="url(#paint1_linear_157_48)"/>
<rect x="78.5227" y="20.4553" width="15" height="36" rx="7.5" transform="rotate(35.1713 78.5227 20.4553)" fill="url(#paint2_linear_157_48)"/>
<rect x="106.315" y="40.04" width="15" height="36" rx="7.5" transform="rotate(35.1713 106.315 40.04)" fill="url(#paint3_linear_157_48)"/>
<rect x="92.4191" y="30.2478" width="15" height="36" rx="7.5" transform="rotate(35.1713 92.4191 30.2478)" fill="url(#paint4_linear_157_48)"/>
<path d="M27.2995 27.1768C28.8901 24.9195 32.0095 24.3791 34.2667 25.9697L100.479 72.6276C102.736 74.2182 103.277 77.3376 101.686 79.5948L84.9813 103.3C80.2093 110.072 70.8513 111.694 64.0794 106.922L14.216 71.7842C7.44411 67.0123 5.82286 57.6542 10.5948 50.8823L27.2995 27.1768Z" fill="url(#paint5_linear_157_48)"/>
<defs>
<linearGradient id="paint0_linear_157_48" x1="60.73" y1="0.870605" x2="53.23" y2="35.8706" gradientUnits="userSpaceOnUse">
<stop stop-color="#FF0000"/>
<stop offset="1" stop-color="#990000"/>
</linearGradient>
<linearGradient id="paint1_linear_157_48" x1="76.6263" y1="12.1631" x2="66.6263" y2="43.1631" gradientUnits="userSpaceOnUse">
<stop stop-color="#FF6C01"/>
<stop offset="1" stop-color="#994101"/>
</linearGradient>
<linearGradient id="paint2_linear_157_48" x1="93.5227" y1="27.4553" x2="81.0227" y2="54.4553" gradientUnits="userSpaceOnUse">
<stop stop-color="#DBFF00"/>
<stop offset="1" stop-color="#849900"/>
</linearGradient>
<linearGradient id="paint3_linear_157_48" x1="128.815" y1="48.54" x2="106.315" y2="70.54" gradientUnits="userSpaceOnUse">
<stop stop-color="#001AFF"/>
<stop offset="1" stop-color="#000F99"/>
</linearGradient>
<linearGradient id="paint4_linear_157_48" x1="107.419" y1="31.2478" x2="89.9191" y2="54.7478" gradientUnits="userSpaceOnUse">
<stop stop-color="#00FF0A"/>
<stop offset="1" stop-color="#009906"/>
</linearGradient>
<linearGradient id="paint5_linear_157_48" x1="67.3728" y1="49.2986" x2="39.1477" y2="89.3529" gradientUnits="userSpaceOnUse">
<stop stop-color="#FFAB2D"/>
<stop offset="0.995" stop-color="#FFC700"/>
</linearGradient>
</defs>
</svg>
